<svg width="16" height="16" viewBox="0 0 16 16" fill="none" xmlns="http://www.w3.org/2000/svg">
<g clip-path="url(#clip0_25_21)">
<path d="M13 0C14.6569 0 16 1.34315 16 3V13C16 14.6569 14.6569 16 13 16H3C1.34315 16 0 14.6569 0 13V3C0 1.34315 1.34315 0 3 0H13ZM3 2C2.44772 2 2 2.44772 2 3V13C2 13.5523 2.44772 14 3 14H5C5.55228 14 6 13.5523 6 13V3C6 2.44772 5.55228 2 5 2H3ZM9 7C8.44772 7 8 7.44772 8 8V13C8 13.5523 8.44772 14 9 14H13C13.5523 14 14 13.5523 14 13V8C14 7.44772 13.5523 7 13 7H9ZM9 2C8.44772 2 8 2.44772 8 3V4C8 4.55228 8.44772 5 9 5H13C13.5523 5 14 4.55228 14 4V3C14 2.44772 13.5523 2 13 2H9Z" fill="#222222"/>
</g>
<defs>
<clipPath id="clip0_25_21">
<rect width="16" height="16" fill="white"/>
</clipPath>
</defs>
</svg>
