<svg width="16" height="16" viewBox="0 0 16 16" fill="none" xmlns="http://www.w3.org/2000/svg">
<path d="M12 0C13.6569 0 15 1.34315 15 3V12C15 13.6569 13.6569 15 12 15H3C1.34315 15 2.416e-08 13.6569 0 12V3C0 1.34315 1.34315 2.41596e-08 3 0H12ZM3 2C2.44772 2 2 2.44772 2 3V12C2 12.5523 2.44772 13 3 13H5C5.55228 13 6 12.5523 6 12V3C6 2.44772 5.55228 2 5 2H3ZM9 7C8.44772 7 8 7.44772 8 8V12C8 12.5523 8.44772 13 9 13H12C12.5523 13 13 12.5523 13 12V8C13 7.44772 12.5523 7 12 7H9ZM9 2C8.44772 2 8 2.44772 8 3V4C8 4.55228 8.44772 5 9 5H12C12.5523 5 13 4.55228 13 4V3C13 2.44772 12.5523 2 12 2H9Z" fill="#222222"/>
</svg>
